# xmcd CD database file
# Copyright (C) 1993-1998 Ti Kan
#
# Track frame offsets:
#	150
#	13360
#	25507
#	36385
#	49297
#	61825
#	71280
#	82867
#	97800
#	111857
#	127577
#	138362
#	154560
#	167730
#	178745
#	197442
#	214917
#	223805
#	233310
#	250337
#	262170
#	279545
#	298867
#	312895
#	330765
#
# Disc length: 4625 seconds
#
# Revision: 1
# Processed by: cddbd v1.4b41PL1 Copyright (c) Steve Scherf et al.
# Submitted via: xmcd 2.3 PL0
#
DISCID=59120f19
DTITLE=Slim Harpo - Tip On In
DYEAR=1900
DGENRE=
TTITLE0=Tip On In (Part 1)
TTITLE1=Tip On In (Part 2)
TTITLE2=I'm Gonna Keep What I've Got
TTITLE3=I've Got To Be With You Tonight
TTITLE4=Mailbox Blues
TTITLE5=Te-Ni-Nee-Ni-Nu
TTITLE6=Mohair Sam
TTITLE7=I Just Can't Leave You
TTITLE8=That's Why I Love You
TTITLE9=Just For You
TTITLE10=My Baby She's Got It
TTITLE11=I've Been Your Good Thing For You
TTITLE12=Hey Little Lee
TTITLE13=Stick Your Chest Out Baby
TTITLE14=Folsom Prison Blues
TTITLE15=Mutual Friend
TTITLE16=I've Got My Finger On Your Trigger
TTITLE17=The Price Is Too High
TTITLE18=Jody Man
TTITLE19=The Music's Hot
TTITLE20=You Can't Make It
TTITLE21=The Hippy Song
TTITLE22=Dynamite
TTITLE23=Rock Me Baby
TTITLE24=Baby Please Come Home
EXTD=
EXTT0=
EXTT1=
EXTT2=
EXTT3=
EXTT4=
EXTT5=
EXTT6=
EXTT7=
EXTT8=
EXTT9=
EXTT10=
EXTT11=
EXTT12=
EXTT13=
EXTT14=
EXTT15=
EXTT16=
EXTT17=
EXTT18=
EXTT19=
EXTT20=
EXTT21=
EXTT22=
EXTT23=
EXTT24=
PLAYORDER=
